<svg id="Layer_1" data-name="Layer 1" xmlns="http://www.w3.org/2000/svg" viewBox="0 0 1650 400"><defs><style>.cls-1{fill:#14213d;}.cls-2{fill:#4ea8de;}</style></defs><title>dexPAD_logo_Large-02</title><path class="cls-1" d="M203.2,340.6c-11.5,23.1-37.1,43.1-74.7,43.1-70.7,0-114.4-56.2-114.4-127.9,0-68.2,46.1-126.4,114.4-126.4,42.6,0,65.7,21.1,73.7,40.6V14h46.6V332.5a381.16,381.16,0,0,0,2.5,44.6H205.7a203,203,0,0,1-2.5-32.6v-3.9Zm-70.3,1.5c43.1,0,69.7-37.6,69.7-87.3S176.5,171,133.4,171s-71.2,35.1-71.2,84.8S87.8,342.1,132.9,342.1Z"/><path class="cls-1" d="M509.1,308.5c-13.5,42.6-52.2,76.2-108.3,76.2-64.7,0-121.4-47.1-121.4-128.9,0-75.7,54.7-127.4,115.4-127.4,74.2,0,115.9,51.2,115.9,126.4a105.64,105.64,0,0,1-1,15H328.1c1,43.1,32.1,73.2,72.7,73.2,39.1,0,58.7-21.6,67.7-48.7Zm-47.6-76.8c-1-34.6-23.6-61.7-66.2-61.7-39.6,0-63.7,30.6-65.7,61.7Z"/><path class="cls-2" d="M649,251.4,559.3,377.2H503.1l89.8-122.9L506.1,135.9h57.2"/><path class="cls-1" d="M665,270.8c14.5,19.6,64.4,89.1,78.9,108.7H687.2l-47.3-71.1"/><path class="cls-1" d="M637.6,195.5l39.6-59.6h55.7L665,232"/><path class="cls-2" d="M830.7,239.8V378.9H770.5V22.9h132c68.3,0,113.5,46.2,113.5,108.4,0,62.8-45.2,108.4-113.5,108.4l-71.8.1Zm62.7-53.3c38.2,0,61.2-21.1,61.2-54.7,0-34.1-23.1-55.7-61.2-55.7H830.7V186.5Z"/><path class="cls-2" d="M1208.2,289.5H1057.6l-33.1,89.4H960.7L1099.3,23h69.8l138.6,355.9h-65.8Zm-129.6-55.8H1187L1132.8,88.1Z"/><path class="cls-2" d="M1340.2,378.8V22.9h126c96.9,0,173.2,64.3,173.2,178.7,0,114-77.3,177.2-173.7,177.2Zm123.5-55.2c61.7,0,112.9-39.7,112.9-122,0-83.3-50.7-123.5-112.4-123.5h-63.8V323.6Z"/></svg>