<?xml version="1.0" encoding="utf-8"?>
<!-- Generator: Adobe Illustrator 22.0.1, SVG Export Plug-In . SVG Version: 6.00 Build 0)  -->
<svg version="1.1" id="Layer_1" xmlns="http://www.w3.org/2000/svg" xmlns:xlink="http://www.w3.org/1999/xlink" x="0px" y="0px"
	 viewBox="0 0 500 800" style="enable-background:new 0 0 500 800;" xml:space="preserve">
<style type="text/css">
	.st0{fill:#14213D;}
	.st1{fill:#FFFFFF;}
	.st2{fill:#3FA9F5;}
	.st3{fill:none;stroke:#FFFFFF;stroke-width:2;stroke-miterlimit:10;}
	.st4{fill:#4EA8DE;}
	.st5{opacity:0.5;}
	.st6{clip-path:url(#SVGID_2_);fill:none;stroke:#CCCCCC;stroke-miterlimit:10;}
	.st7{fill:none;stroke:#3FA9F5;stroke-width:0.5;stroke-miterlimit:10;}
	.st8{fill:none;stroke:#FFFFFF;stroke-width:0.5;stroke-miterlimit:10;}
	.st9{font-family:'Gotham-Book';}
	.st10{font-size:16.66px;}
	.st11{letter-spacing:-1;}
	.st12{font-size:14.28px;}
	.st13{font-family:'Gotham-Bold';}
	.st14{font-size:19.04px;}
	.st15{clip-path:url(#SVGID_4_);fill:none;stroke:#CCCCCC;stroke-miterlimit:10;}
	.st16{fill:none;stroke:#999999;stroke-miterlimit:10;}
	.st17{opacity:0.15;}
	.st18{clip-path:url(#SVGID_6_);fill:#999999;}
	.st19{clip-path:url(#SVGID_8_);fill:#999999;}
	.st20{clip-path:url(#SVGID_10_);fill:#999999;}
	.st21{clip-path:url(#SVGID_12_);fill:#999999;}
	.st22{clip-path:url(#SVGID_14_);fill:#999999;}
	.st23{clip-path:url(#SVGID_16_);fill:#999999;}
</style>
<g>
	<g>
		<rect x="13.9" y="148" class="st0" width="469.4" height="571.5"/>
		<path class="st1" d="M483.3,152.8V40.2c0-7.9-6.4-14.3-14.3-14.3H28.2c-7.9,0-14.3,6.4-14.3,14.3v112.6H483.3z"/>
		<path class="st0" d="M13.9,513.9v256.6c0,7.9,6.4,14.3,14.3,14.3H469c7.9,0,14.3-6.4,14.3-14.3V513.9H13.9z"/>
	</g>
	<text transform="matrix(1 0 0 1 56.5137 549.4336)"><tspan x="0" y="0" class="st1 st9 st10 st11">Y</tspan><tspan x="10.1" y="0" class="st1 st9 st10">our tier</tspan></text>
	<text transform="matrix(1 0 0 1 56.5137 583.2363)"><tspan x="0" y="0" class="st1 st9 st10 st11">Y</tspan><tspan x="10.1" y="0" class="st1 st9 st10">our pu</tspan><tspan x="64.2" y="0" class="st1 st9 st10">r</tspan><tspan x="70.6" y="0" class="st1 st9 st10">chased</tspan></text>
	<text transform="matrix(1 0 0 1 56.5137 617.0391)"><tspan x="0" y="0" class="st1 st9 st10">Min buy </tspan><tspan x="70.3" y="0" class="st1 st9 st10">b</tspan><tspan x="80.9" y="0" class="st1 st9 st10">y tier</tspan></text>
	<text transform="matrix(1 0 0 1 56.5137 650.8438)"><tspan x="0" y="0" class="st1 st9 st10">Max buy </tspan><tspan x="74.8" y="0" class="st1 st9 st10">b</tspan><tspan x="85.5" y="0" class="st1 st9 st10">y tier</tspan></text>
	<text transform="matrix(1 0 0 1 56.5137 684.6465)"><tspan x="0" y="0" class="st1 st9 st10 st11">A</tspan><tspan x="12.1" y="0" class="st1 st9 st10">v</tspan><tspan x="21.5" y="0" class="st1 st9 st10">ailable buy</tspan></text>
	<text transform="matrix(1 0 0 1 56.5137 455.168)"><tspan x="0" y="0" class="st1 st9 st12">P</tspan><tspan x="9.4" y="0" class="st1 st9 st12">articipants</tspan></text>
	<text transform="matrix(1 0 0 1 185.0771 455.168)"><tspan x="0" y="0" class="st1 st9 st12">BNB </tspan><tspan x="36.2" y="0" class="st1 st9 st12">t</tspan><tspan x="41.7" y="0" class="st1 st9 st12">o buy</tspan></text>
	<text transform="matrix(1 0 0 1 320.8799 455.168)"><tspan x="0" y="0" class="st1 st9 st12">A</tspan><tspan x="10.9" y="0" class="st1 st9 st12">cc</tspan><tspan x="26.8" y="0" class="st1 st9 st12">e</tspan><tspan x="35.3" y="0" class="st1 st9 st12">s</tspan><tspan x="42.3" y="0" class="st1 st9 st12">s</tspan></text>
	<text transform="matrix(1 0 0 1 185.0811 482.5938)" class="st2 st13 st14">0</text>
	<text transform="matrix(1 0 0 1 57.1514 482.5938)" class="st2 st13 st14">0</text>
	<text transform="matrix(1 0 0 1 320.8945 482.5938)"><tspan x="0" y="0" class="st2 st13 st14">Pri</tspan><tspan x="26.4" y="0" class="st2 st13 st14">v</tspan><tspan x="37.4" y="0" class="st2 st13 st14">a</tspan><tspan x="48.6" y="0" class="st2 st13 st14">t</tspan><tspan x="56.2" y="0" class="st2 st13 st14">e</tspan></text>
	<text transform="matrix(1 0 0 1 390.3438 549.4336)" class="st2 st9 st10">-</text>
	<text transform="matrix(1 0 0 1 390.3438 580.8535)" class="st2 st9 st10">0 BNB</text>
	<text transform="matrix(1 0 0 1 390.3438 612.2754)" class="st2 st9 st10">0 BNB</text>
	<text transform="matrix(1 0 0 1 390.3438 643.6973)" class="st2 st9 st10">0 BNB</text>
	<text transform="matrix(1 0 0 1 390.3438 675.1172)" class="st2 st9 st10">0 BNB</text>
	<text transform="matrix(1 0 0 1 56.5107 205.8042)"><tspan x="0" y="0" class="st1 st9 st10">T</tspan><tspan x="10.3" y="0" class="st1 st9 st10">ier 1</tspan></text>
	<text transform="matrix(1 0 0 1 56.5107 246.772)" class="st1 st9 st10">0</text>
	<text transform="matrix(1 0 0 1 395.792 246.772)" class="st1 st9 st10">0 BNB</text>
	<g>
		<path class="st2" d="M256,217.1H61.2c-2.6,0-4.7,1.7-4.7,3.7c0,2,2.1,3.7,4.7,3.7H256V217.1z"/>
		<path class="st1" d="M445.8,217.1H256v7.4h189.8c2.6,0,4.7-1.7,4.7-3.7C450.5,218.8,448.4,217.1,445.8,217.1"/>
	</g>
	<text transform="matrix(1 0 0 1 56.5137 287.1499)"><tspan x="0" y="0" class="st1 st9 st10">T</tspan><tspan x="10.3" y="0" class="st1 st9 st10">ier 2</tspan></text>
	<text transform="matrix(1 0 0 1 56.5137 328.1167)" class="st1 st9 st10">0</text>
	<text transform="matrix(1 0 0 1 395.7949 328.1167)" class="st1 st9 st10">0 BNB</text>
	<g>
		<path class="st1" d="M445.8,298.5H256H61.2c-2.6,0-4.7,1.7-4.7,3.7c0,2,2.1,3.7,4.7,3.7H256h189.8c2.6,0,4.7-1.7,4.7-3.7
			C450.5,300.1,448.4,298.5,445.8,298.5"/>
	</g>
	<text transform="matrix(1 0 0 1 56.5137 368.5181)"><tspan x="0" y="0" class="st1 st9 st10">T</tspan><tspan x="10.3" y="0" class="st1 st9 st10">ier 4</tspan></text>
	<text transform="matrix(1 0 0 1 56.5137 409.4844)" class="st1 st9 st10">0</text>
	<text transform="matrix(1 0 0 1 395.7949 409.4844)" class="st1 st9 st10">0 BNB</text>
	<g>
		<path class="st1" d="M445.8,379.9H256H61.2c-2.6,0-4.7,1.7-4.7,3.7c0,2,2.1,3.7,4.7,3.7H256h189.8c2.6,0,4.7-1.7,4.7-3.7
			C450.5,381.5,448.4,379.9,445.8,379.9"/>
		<g class="st5">
			<g>
				<defs>
					<rect id="SVGID_3_" x="143.5" y="99.6" width="135.2" height="24.6"/>
				</defs>
				<clipPath id="SVGID_2_">
					<use xlink:href="#SVGID_3_"  style="overflow:visible;"/>
				</clipPath>
				<path class="st6" d="M266.3,123.6H155.8c-6.4,0-11.7-5.3-11.7-11.7s5.3-11.7,11.7-11.7h110.6c6.4,0,11.7,5.3,11.7,11.7
					S272.8,123.6,266.3,123.6z"/>
			</g>
		</g>
	</g>
	<text transform="matrix(1 0 0 1 167.4111 117.2847)" class="st2 st9 st12">Opens in TBA</text>
	<g>
		<path class="st2" d="M161.4,112.7c0,2.6-2.1,4.6-4.6,4.6c-2.6,0-4.6-2.1-4.6-4.6c0-2.6,2.1-4.6,4.6-4.6
			C159.3,108.1,161.4,110.1,161.4,112.7"/>
		<path class="st7" d="M161.4,112.7c0,2.6-2.1,4.6-4.6,4.6c-2.6,0-4.6-2.1-4.6-4.6c0-2.6,2.1-4.6,4.6-4.6
			C159.3,108.1,161.4,110.1,161.4,112.7z"/>
		<path class="st8" d="M320.4,756.9H169c-2.6,0-4.8-2.1-4.8-4.8v-24.6c0-2.6,2.1-4.8,4.8-4.8h151.4c2.6,0,4.8,2.1,4.8,4.8v24.6
			C325.1,754.7,323,756.9,320.4,756.9z"/>
		<path class="st1" d="M469,27.1c7.2,0,13.1,5.9,13.1,13.1v730.2c0,7.2-5.9,13.1-13.1,13.1H28.2c-7.2,0-13.1-5.9-13.1-13.1V40.2
			c0-7.2,5.9-13.1,13.1-13.1H469z M469,25.9H28.2c-7.9,0-14.3,6.4-14.3,14.3v730.2c0,7.9,6.4,14.3,14.3,14.3H469
			c7.9,0,14.3-6.4,14.3-14.3V40.2C483.3,32.4,476.9,25.9,469,25.9"/>
	</g>
	<text transform="matrix(1 0 0 1 201.583 746.1152)"><tspan x="0" y="0" class="st1 st9 st14">V</tspan><tspan x="13.9" y="0" class="st1 st9 st14">i</tspan><tspan x="18.9" y="0" class="st1 st9 st14">e</tspan><tspan x="29.7" y="0" class="st1 st9 st14">w </tspan><tspan x="51.8" y="0" class="st1 st9 st14">P</tspan><tspan x="64.4" y="0" class="st1 st9 st14">ool</tspan></text>
	<g>
		<line class="st16" x1="56.8" y1="513.9" x2="450.2" y2="513.9"/>
		<path class="st0" d="M158.4,84.5c-0.7,1.5-2.4,2.8-4.8,2.8c-4.6,0-7.4-3.6-7.4-8.2c0-4.4,3-8.2,7.4-8.2c2.7,0,4.2,1.4,4.8,2.6
			V63.4h3v20.6c0,1.5,0.2,2.6,0.2,2.9h-3c-0.1-0.3-0.2-1.2-0.2-2.1V84.5z M153.9,84.7c2.8,0,4.5-2.4,4.5-5.7c0-3.2-1.7-5.4-4.5-5.4
			c-2.8,0-4.6,2.2-4.6,5.4C149.2,82.2,151,84.7,153.9,84.7"/>
		<path class="st0" d="M178.2,82.4c-0.9,2.7-3.4,5-7,5c-4.2,0-7.8-3-7.8-8.3c0-4.9,3.5-8.2,7.4-8.2c4.8,0,7.5,3.3,7.5,8.2
			c0,0.4,0,0.8-0.1,1h-11.7c0.1,2.8,2.1,4.7,4.7,4.7c2.6,0,3.8-1.4,4.4-3.1L178.2,82.4z M175.2,77.5c-0.1-2.2-1.5-4-4.2-4
			c-2.6,0-4.1,2-4.2,4H175.2z"/>
		<polyline class="st4" points="187.2,78.7 181.5,86.9 177.9,86.9 183.7,79 178.1,71.3 181.8,71.3 		"/>
		<path class="st0" d="M188.3,80c1,1.3,4.2,5.8,5.1,7h-3.7l-3-4.6"/>
		<polyline class="st0" points="186.5,75.1 189.1,71.3 192.7,71.3 188.3,77.5 		"/>
		<path class="st4" d="M207.5,70.4c-0.2-1.4-1.4-3.5-4.5-3.5c-2.3,0-3.9,1.5-3.9,3.3c0,1.4,0.9,2.6,2.7,3l3.3,0.6
			c4.1,0.8,6.2,3.4,6.2,6.6c0,3.5-2.9,7-8.2,7c-5.8,0-8.5-3.8-8.9-7l3.6-1c0.2,2.4,1.9,4.6,5.3,4.6c2.7,0,4.2-1.4,4.2-3.2
			c0-1.5-1.1-2.7-3-3.1l-3.2-0.6c-3.5-0.7-5.8-3-5.8-6.4c0-3.8,3.5-7,7.8-7c5.4,0,7.5,3.3,8,5.8L207.5,70.4z"/>
		<polygon class="st4" points="227.4,86.9 227.4,77.1 216.6,77.1 216.6,86.9 212.7,86.9 212.7,63.9 216.6,63.9 216.6,73.5 
			227.4,73.5 227.4,63.9 231.3,63.9 231.3,86.9 		"/>
		<path class="st4" d="M247.7,81.1H238l-2.2,5.8h-4.1l9-23h4.5l8.9,23h-4.2L247.7,81.1z M239.4,77.5h7l-3.5-9.4L239.4,77.5z"/>
		<path class="st4" d="M261.4,77.9h-2.9v9h-3.9v-23h8.8c4.4,0,7.2,3,7.2,7c0,3.3-2,5.8-5.2,6.6l5.2,9.4h-4.4L261.4,77.9z
			 M262.7,74.4c2.4,0,3.9-1.4,3.9-3.5c0-2.2-1.5-3.5-3.9-3.5h-4.2v7H262.7z"/>
		<polygon class="st4" points="272.2,86.9 272.2,63.9 286.3,63.9 286.3,67.5 276,67.5 276,73.6 285.4,73.6 285.4,77.1 276,77.1 
			276,83.2 286.3,83.2 286.3,86.9 		"/>
		<path class="st0" d="M87.5,57.2c19.2,0,34.8,15.6,34.8,34.8c0,19.2-15.6,34.8-34.8,34.8c-19.2,0-34.8-15.6-34.8-34.8
			C52.8,72.8,68.3,57.2,87.5,57.2"/>
		<path class="st3" d="M87.5,57.2c19.2,0,34.8,15.6,34.8,34.8c0,19.2-15.6,34.8-34.8,34.8c-19.2,0-34.8-15.6-34.8-34.8
			C52.8,72.8,68.3,57.2,87.5,57.2z"/>
		<polyline class="st4" points="109,91.7 104,98.6 100.9,98.6 105.8,91.9 101.1,85.3 104.2,85.3 		"/>
		<path class="st4" d="M68.8,111.6c0-0.1,0.1-0.1,0.1-0.2c8.1-11.1,16.2-22.1,24.3-33.2c1.1-1.5,2.3-3.1,3.4-4.6
			c0.1-0.1,0.1-0.1,0.2-0.1h8.6h0.2c-0.1,0.1-0.1,0.1-0.1,0.2c-2.3,3.1-4.6,6.2-6.8,9.3c-7,9.4-14,18.9-20.9,28.4
			c0,0.1-0.1,0.1-0.2,0.2H68.8z"/>
		<path class="st1" d="M78.2,73.5c0.5,0.8,1.1,1.6,1.7,2.4c2.1,2.9,4,5.8,6.1,8.7c0.1,0.1,0.1,0.2,0,0.2c-1.4,1.8-2.8,3.6-4.3,5.5
			l-0.1,0.1c-0.3-0.5-0.7-0.9-1-1.4c-3.8-5.2-7.5-10.3-11.3-15.4c0-0.1-0.1-0.1-0.1-0.2H78.2z"/>
		<path class="st1" d="M106,111.5h-0.2h-8.7c-0.1,0-0.2,0-0.2-0.1c-2.7-3.8-5.3-7.5-8-11.3c-0.1-0.1-0.1-0.2,0-0.2
			c1.4-2,2.9-3.9,4.3-6l0.1-0.1C97.6,99.8,101.7,105.7,106,111.5"/>
		<polyline class="st4" points="70.6,85.3 73.7,85.3 69,91.9 73.9,98.6 70.8,98.6 65.8,91.7 		"/>
		<g class="st17">
			<g>
				<defs>
					<rect id="SVGID_5_" x="400.8" y="25.9" width="82.5" height="126.9"/>
				</defs>
				<clipPath id="SVGID_4_">
					<use xlink:href="#SVGID_5_"  style="overflow:visible;"/>
				</clipPath>
				<path style="clip-path:url(#SVGID_4_);fill:#999999;" d="M463.2,152.8c-1.4-1.4-2.8-2.8-4.2-4.3c-8.3-8.3-16.5-16.5-24.8-24.8
					c-8.5-8.5-17.1-17.1-25.6-25.6c-2.4-2.4-4.8-4.8-7.3-7.3c-0.6-0.6-0.6-0.7,0-1.3c6.6-6.6,13.2-13.2,19.8-19.8
					c10.3-10.3,20.7-20.7,31-31c4.1-4.1,8.2-8.2,12.3-12.3c0.1-0.1,0.3-0.3,0.4-0.4h18.4v37.6c-1.1,1.1-2.2,2.3-3.3,3.4
					c-4,4-8,8-12,12c-3.1,3.1-6.1,6.1-9.2,9.2c-0.6,0.6-1.2,1.2-1.8,1.7c0.1,0.2,0.2,0.3,0.3,0.3c2.7,2.7,5.5,5.5,8.2,8.2
					c5,5,10.1,10.1,15.1,15.1c0.9,0.9,1.9,1.8,2.9,2.8v36.5H463.2z"/>
			</g>
		</g>
		<g class="st17">
			<g>
				<defs>
					<rect id="SVGID_7_" x="336" y="25.9" width="87.4" height="59.4"/>
				</defs>
				<clipPath id="SVGID_6_">
					<use xlink:href="#SVGID_7_"  style="overflow:visible;"/>
				</clipPath>
				<path class="st18" d="M392.1,25.9c2.5,2.5,5,5.1,7.6,7.6c5.4,5.4,10.8,10.8,16.2,16.2c2.4,2.4,4.8,4.8,7.2,7.2
					c0.4,0.4,0.4,0.6,0,1c-3.6,3.6-7.2,7.2-10.8,10.8c-4.1,4.1-8.2,8.2-12.3,12.3c-1.4,1.4-2.7,2.7-4.1,4.1c-0.3,0.4-0.6,0.3-0.9,0
					c-5.6-5.7-11.3-11.3-16.9-16.9c-5.7-5.7-11.5-11.4-17.2-17.2c-5.5-5.5-11-11-16.5-16.5c-2.8-2.8-5.6-5.6-8.5-8.5H392.1z"/>
			</g>
		</g>
		<g class="st17">
			<g>
				<defs>
					<rect id="SVGID_9_" x="337.4" y="95.1" width="88.1" height="57.6"/>
				</defs>
				<clipPath id="SVGID_8_">
					<use xlink:href="#SVGID_9_"  style="overflow:visible;"/>
				</clipPath>
				<path class="st19" d="M337.4,152.8c0.7-0.7,1.3-1.4,2-2.1c2.1-2.1,4.3-4.3,6.5-6.4c3.3-3.2,6.5-6.4,9.8-9.6
					c3.1-3.1,6.2-6.1,9.4-9.2c4.8-4.8,9.7-9.5,14.5-14.3c3.2-3.1,6.4-6.3,9.6-9.4c2.1-2.1,4.2-4.2,6.4-6.3c0.4-0.4,0.6-0.4,1,0
					c4.6,4.5,9.1,9,13.7,13.5c2.3,2.3,4.6,4.6,7,6.9c2.7,2.7,5.4,5.3,8.2,8c0,0,0.1,0.1,0.2,0.3c-0.5,0.5-1.1,0.9-1.6,1.4
					c-3.1,3-6.1,6-9.2,9c-4.9,4.8-9.7,9.6-14.6,14.4c-1.3,1.2-2.5,2.5-3.7,3.7H337.4z"/>
			</g>
		</g>
	</g>
</g>
</svg>
