<?xml version="1.0" encoding="utf-8"?>
<!-- Generator: Adobe Illustrator 23.0.1, SVG Export Plug-In . SVG Version: 6.00 Build 0)  -->
<svg version="1.1" id="Layer_1" xmlns="http://www.w3.org/2000/svg" xmlns:xlink="http://www.w3.org/1999/xlink" x="0px" y="0px"
	 viewBox="0 0 500 420" style="enable-background:new 0 0 500 420;" xml:space="preserve">
<style type="text/css">
	.st0{fill:#1E91DD;}
	.st1{fill:#F0F1F1;}
	.st2{fill:#EFF0F1;}
	.st3{fill:#ECF0F0;}
	.st4{fill:#C9CBCC;}
	.st5{fill:#EAEFF0;}
	.st6{fill:#2595E1;}
</style>
<g>
	<path class="st1" d="M474.1,95c1.8,4.5,0.7,9.2,0.8,13.8c0,1.6-1.3,2.3-2.8,2.4c-1.7,0.1-3.3,0.1-5,0.1c-145.5,0-291,0-436.4,0
		c-2.6,0-5.4,0.9-7.5-1.5c0.1-0.5,0.1-1,0.1-1.5c0.3-13.1,0.3-13.1,12.7-16.8c69.2-20.7,138.4-41.3,207.6-62.1
		c3.9-1.2,7.3-1.2,11.1,0C327.7,51.3,400.9,73.1,474.1,95z"/>
	<path class="st2" d="M33.1,143.5c2-0.1,4-0.4,6-0.4c139.8,0,279.6,0,419.5,0c7.2,0,7.2,0,7.2,7.2c0,4-0.2,8,0,12
		c0.2,4.2-1.4,5.9-5.8,5.8c-26.5-0.2-53-0.1-79.5-0.1c-113.5,0-227,0-340.5,0c-1.7,0-3.3,0.1-5,0.1c-1.5-0.6-2.7-1.7-2.6-3.3
		C32.6,157.7,31.3,150.5,33.1,143.5z"/>
	<path class="st2" d="M491,382.9c4,4.6,2.8,13.6-2,15.2c-1.3,0-2.6,0-3.9,0.1c-1.8-0.1-3.7-0.2-5.5-0.2c-153.9,0-307.7,0-461.6,0
		c-1.7,0-3.3,0.1-5,0.2c-1,0-1.9,0-2.9,0c-0.7,0-1.4,0-2,0c-0.3-0.2-0.6-0.3-0.9-0.2c-2.5-4-1.1-8.3-1.1-12.5c0-2,1.9-2.4,3.7-2.4
		c3.5-0.1,6.9-0.1,10.4-0.2c1.7,0.1,3.3,0.2,5,0.2c149,0,298,0,447,0c1.7,0,3.3-0.1,5-0.2c0.7,0,1.4,0,2.1,0c0.6,0,1.3,0,1.9,0
		c0.7,0,1.4,0,2.1,0l0.5,0.1l0.5-0.1C486.3,382.9,488.7,382.9,491,382.9z"/>
	<path class="st3" d="M36.8,364.4c2,0.1,4,0.3,6,0.3c143.1,0,286.2,0,429.4,0.1c2.5,0,6.1-1.5,7.1,1.7c1.2,3.7,1,7.9,0,11.8
		c-0.3,1.2-1.7,1.5-2.9,1.5c-1.5,0-3,0-4.5,0c-148.5,0-296.9,0-445.4,0c-2.2,0-4.3,0.1-6.5,0.1c-3.7-4-1.7-8.8-1.6-13.2
		c0.1-2,2.4-1.9,4-2C27.2,364.6,32,364.5,36.8,364.4z"/>
	<path class="st2" d="M53,360.8c-5.6,0-11.3,0-16.9,0.1c-1.5-2.3-1-4.8-0.9-7.3c1-56,2.1-112.1,3.1-168.1c0-2.4,0.4-4.3-2.6-6.2
		c-2.7-1.7-1.9-5.3,0.4-7.9c5.6,0,11.2,0.1,16.8,0.1C52.9,234.6,52.9,297.7,53,360.8z"/>
	<path class="st3" d="M29.4,116.3c4.5-2,9.2-0.8,13.8-0.9c2.3,0,2.8,2,2.8,4c0,5.3-0.1,10.7,0,16c0,2.8-1.2,3.9-3.9,3.9
		c-3.7,0-7.3,0-11,0c-1.4-0.8-2.1-2-2-3.7C29.2,129.2,28.6,122.7,29.4,116.3z"/>
	<path class="st4" d="M366,171.5c5-0.1,10-0.2,15-0.2c1.9,0,3.8,0.4,4.1,2.7c0.3,2.1,1,4.7-1.4,5.8c-2.5,1.1-2.3,2.8-2.2,4.9
		c1,52.6,1.9,105.1,2.9,157.7c0.1,4.7,0.2,9.3,0.5,14c0.2,3.4-1.3,4.8-4.8,4.7c-4.7-0.2-9.3-0.1-14-0.2c0-12.2,0.1-24.3,0.1-36.5
		C366,273.4,366,222.4,366,171.5z"/>
	<path class="st2" d="M131.9,360.8c-4.2,0.1-8.3-0.1-12.5,0.3c-4.9,0.4-6.3-1.4-6.2-6.3c0.7-24.3,1.1-48.6,1.6-72.8
		c0.6-32.3,1.2-64.5,1.8-96.8c0-2.2,0.5-4-2.4-5.7c-2.8-1.7-2.8-5.3,0.4-7.8c0.4-0.1,0.8-0.2,1.1-0.3c5.3,0,10.6,0.1,16,0.1
		C131.9,234.6,131.9,297.7,131.9,360.8z"/>
	<path class="st4" d="M53,360.8c0-63.1,0-126.2,0-189.3c4.8-0.1,9.7-0.2,14.5-0.2c1.9,0,3.9,0.3,4.3,2.5c0.4,2.1,1.1,4.8-1.3,5.8
		c-3,1.4-2.4,3.6-2.4,5.8c1,56,2,112,3,167.9c0.1,7.6,0.1,7.6-7.7,7.6C59.9,361,56.4,360.9,53,360.8z"/>
	<path class="st2" d="M195.9,171.6c4.7-0.5,9.3-0.5,14-0.1c0,63.1,0,126.2,0.1,189.3c-4.5,0-9-0.1-13.5,0.2
		c-4.4,0.3-4.8-2.2-4.7-5.6c0.5-23.3,0.8-46.6,1.3-69.8c0.6-33.4,1.3-66.9,1.9-100.3c0-2.2,0.7-4.5-2.4-5.6
		c-2.3-0.8-1.5-3.5-1.4-5.4c0.1-2.1,1.6-2.8,3.5-2.6C195.1,171.7,195.5,171.6,195.9,171.6z"/>
	<path class="st2" d="M445,360.8c-4,0.1-8-0.1-12,0.3c-4.8,0.4-6.3-1.3-6.2-6.2c0.6-25.8,0.9-51.6,1.4-77.4
		c0.6-30.8,1.2-61.6,1.7-92.4c0-2.2,0.4-4-2.4-5.7c-2.6-1.5-2.6-5.1,0.3-7.5c0.4-0.1,0.7-0.2,1.1-0.4c5.3,0,10.7,0,16,0
		C444.9,234.6,444.9,297.7,445,360.8z"/>
	<path class="st4" d="M287.9,171.5c4.8-0.1,9.6-0.2,14.4-0.3c1.9,0,3.9,0.3,4.3,2.5c0.4,2,1.2,4.8-1.2,5.8c-3,1.3-2.4,3.6-2.4,5.8
		c0.6,34.9,1.3,69.8,1.9,104.7c0.4,21.6,0.7,43.2,1.2,64.8c0.1,4.5-1.1,6.5-5.8,6.1c-4.1-0.4-8.3-0.2-12.5-0.2
		C287.9,297.7,287.9,234.6,287.9,171.5z"/>
	<path class="st4" d="M210,360.8c0-63.1,0-126.2-0.1-189.3c4.8-0.1,9.6-0.2,14.5-0.3c2,0,3.8,0.4,4.2,2.7c0.3,1.9,1,4.6-1.1,5.5
		c-3.3,1.4-2.6,3.8-2.6,6.2c1,56.1,2.1,112.1,3.1,168.2c0.1,7.3,0.1,7.3-7,7.2C217.3,361,213.6,360.9,210,360.8z"/>
	<path class="st2" d="M287.9,171.5c0,63.1,0,126.2,0,189.3c-3.8,0.1-7.7,0.2-11.5,0.2c-6.5,0-6.5,0-6.4-6.3
		c0.6-29.5,1.2-58.9,1.7-88.4c0.5-27,0.9-53.9,1.4-80.9c0-2.2,0.6-4.4-2.4-5.7c-2.3-1-1.7-3.8-1.2-5.9c0.4-2.1,2.2-2.3,4-2.3
		C278.3,171.4,283.1,171.5,287.9,171.5z"/>
	<path class="st4" d="M445,360.8c0-63.1,0-126.2,0-189.3c4.8-0.1,9.7-0.2,14.5-0.2c2,0,3.8,0.6,4.2,2.7c0.4,1.9,0.8,4.6-1.2,5.5
		c-3.2,1.4-2.5,3.9-2.5,6.3c1,53.3,2,106.6,3,159.9c0.1,3.5,0,7,0.2,10.5c0.2,3.3-1,5-4.6,4.9C454,360.8,449.4,360.9,445,360.8z"/>
	<path class="st4" d="M131.9,360.8c0-63.1,0-126.2,0-189.2c4.7-0.1,9.3-0.2,14-0.3c2,0,3.9,0.3,4.2,2.6c0.3,2.1,1,4.8-1.3,5.9
		c-2.4,1.1-2.5,2.7-2.4,4.8c0.6,30.8,1.2,61.6,1.8,92.5c0.5,25.8,1,51.6,1.6,77.5c0.1,6.3-0.1,6.6-6.2,6.6
		C139.6,361,135.7,360.9,131.9,360.8z"/>
	<path class="st2" d="M366,171.5c0,51,0.1,101.9,0.1,152.9c0,12.2,0,24.3-0.1,36.5c-4.2,0.1-8.3,0-12.5,0.2
		c-3.9,0.2-5.3-1.3-5.2-5.2c0.5-18.8,0.8-37.6,1.2-56.4c0.8-38.3,1.5-76.6,2.3-114.8c0-1.9,0.2-3.4-2.2-4.8c-2.9-1.7-2.3-5-0.4-7.8
		c0.4,0,0.6-0.1,0.9-0.4C355.3,171,360.6,171.2,366,171.5z"/>
	<path class="st5" d="M143.7,127.2c-0.1,13.8,2,11.8-12.9,12.1c-2.9,0.1-4.2-1.1-4.2-4.2c0.1-5.2,0-10.3,0-15.5c0-0.7-0.2-1.5,0.1-2
		c3.5-4.8,8.5-1.7,12.8-2.4c2.7-0.5,4,1.4,4,3.9C143.8,121.9,143.7,124.6,143.7,127.2z"/>
	<path class="st5" d="M306.3,127.8c-0.1,13.4,1.6,11.3-11.6,11.6c-4.1,0.1-5.7-1.4-5.5-5.5c0.2-4.5,0.1-8.9,0.1-13.4
		c0-0.5-0.1-1,0-1.5c2-7,7.8-2.6,11.7-3.6c2.8-0.7,5.4,0.1,5.3,4C306.2,122.1,306.3,125,306.3,127.8z"/>
	<path class="st5" d="M191.7,127.1c0.2-13.4-2-11.6,12.7-11.8c3.2,0,4.5,1.5,4.4,4.6c-0.1,5-0.1,10,0,15c0.1,3.2-1.3,4.5-4.5,4.5
		C189.5,139,191.9,141.4,191.7,127.1z"/>
	<path class="st5" d="M371.3,127.5c-0.2,13.4,2.9,11.7-12.8,11.8c-3,0-4.2-1.3-4.2-4.2c0-5.1,0-10.3,0-15.4c0-0.3-0.1-0.7,0-1
		c2.6-6.6,8.2-2.5,12.4-3.4c2.9-0.6,4.7,0.8,4.5,4.2C371.1,122.2,371.3,124.8,371.3,127.5z"/>
	<path class="st5" d="M257,127.3c0-0.2,0-0.3,0-0.5c0.3-13.1-2.8-11.4,12.7-11.6c2.7,0,4,1.2,4,3.8c0,5.5,0,11,0,16.5
		c0,0.2,0,0.3,0,0.5c-2.3,6.4-7.7,2.1-11.5,3.1c-2.3,0.6-5.3,0.6-5.2-3.3C257.1,133,257,130.1,257,127.3
		C257,127.3,257,127.3,257,127.3z"/>
	<path class="st5" d="M322,127.5c0-0.2,0-0.3,0-0.5c0.3-13.3-2.5-11.6,12.6-11.7c2.9,0,4.3,1.1,4.2,4.1c-0.1,5.3-0.1,10.6,0,16
		c0,2.7-1.1,4-3.9,3.9c-0.2,0-0.3,0-0.5,0C319.4,139,322.3,141.2,322,127.5z"/>
	<path class="st5" d="M176,127.3c0,0.2,0,0.3,0,0.5c0,12.6-0.4,12.9-13.2,11.5c-2.5-0.3-3.6-1.3-3.6-3.7c0-5.5,0-11,0-16.5
		c0-0.3-0.1-0.7,0.1-1c3.1-5.6,8.3-1.9,12.4-2.8c2.7-0.6,4.4,0.8,4.3,4C175.9,122,176,124.6,176,127.3z"/>
	<path class="st5" d="M224.3,127c0.2-13.4-2.1-11.6,12.6-11.8c2.8,0,4.3,1,4.2,4.1c-0.2,5.3-0.1,10.6,0,16c0.1,2.7-1,4-3.7,4
		C221.4,139.1,224.6,141.2,224.3,127z"/>
	<path class="st3" d="M111,127.6c-0.3,13.4,2.3,11.4-12.1,11.7c-3.7,0.1-5.1-1.3-5-5c0.2-4.7,0-9.3,0.1-14c0-0.8-0.2-1.9,0.2-2.5
		c3.5-5.3,8.8-1.7,13.2-2.5c2.7-0.5,3.7,1.6,3.6,4.2C110.9,122.2,111,124.9,111,127.6z"/>
	<path class="st3" d="M387,127.3c0-0.2,0-0.3,0-0.5c0-12.3,1.1-13.2,13.4-11.5c2.4,0.3,3.6,1.5,3.6,3.9c0,5.5,0,11,0,16.5
		c0,0.3,0.1,0.7-0.1,1c-3.4,5.5-8.7,1.6-13.1,2.6c-2.7,0.6-3.9-1.2-3.8-3.9C387.1,132.6,387,130,387,127.3z"/>
	<path class="st3" d="M469,127.8c-0.3,12.8,2.3,11.3-11.8,11.5c-3.9,0.1-5.4-1.3-5.2-5.2c0.2-4.8,0.1-9.7,0-14.5
		c-0.1-2.9,1.2-4.4,4.1-4.4c0.2,0,0.3,0,0.5,0C471.2,115.4,468.8,113.6,469,127.8z"/>
	<path class="st2" d="M78.3,127.2c0,0.2,0,0.3,0,0.5c0,12.8-0.2,12.8-13,11.6c-2.5-0.3-3.5-1.3-3.5-3.8c0-5.5,0.1-10.9,0-16.4
		c0-2.7,1.2-3.9,3.9-3.9C81.1,115.5,77.9,113.4,78.3,127.2z"/>
	<path class="st2" d="M436.3,127.5c-0.3,13.6,2.5,11.5-12.3,11.8c-2.9,0-4.3-0.9-4.2-4c0.1-5.3,0.1-10.6,0-15.9
		c0-2.9,1.2-4.2,4.2-4.1C438.9,115.4,435.9,113.5,436.3,127.5z"/>
	<path class="st4" d="M115.9,171.4c-0.4,0.1-0.8,0.2-1.1,0.3C115.1,171.6,115.5,171.5,115.9,171.4z"/>
	<path class="st4" d="M195.9,171.6c-0.4,0-0.9,0-1.3,0C195.1,171.7,195.5,171.6,195.9,171.6z"/>
	<path class="st4" d="M350,171.6c-0.2,0.3-0.5,0.4-0.9,0.4C349.2,171.5,349.5,171.3,350,171.6z"/>
	<path class="st4" d="M428.9,171.4c-0.4,0.1-0.7,0.2-1.1,0.4C428.2,171.7,428.5,171.6,428.9,171.4z"/>
</g>
</svg>
