<?xml version="1.0" encoding="utf-8"?>
<!-- Generator: Adobe Illustrator 23.0.1, SVG Export Plug-In . SVG Version: 6.00 Build 0)  -->
<svg version="1.1" id="Layer_1" xmlns="http://www.w3.org/2000/svg" xmlns:xlink="http://www.w3.org/1999/xlink" x="0px" y="0px"
	 viewBox="0 0 1720 400" style="enable-background:new 0 0 1720 400;" xml:space="preserve">
<style type="text/css">
	.st0{fill:#14213D;}
	.st1{fill:#4EA8DE;}
	.st2{fill:#FFFFFF;}
</style>
<g>
	<g>
		<g>
			<path class="st0" d="M201,339c-11.5,23-37,43-74.5,43c-70.5,0-114-56-114-127.6c0-68,46-126.1,114-126.1
				c42.5,0,65.5,21,73.5,40.5V13.4h46.5V331c0,23,2,40.5,2.5,44.5h-45.5c-1-5.5-2.5-18-2.5-32.5V339z M131,340.5
				c43,0,69.5-37.5,69.5-87c0-49.5-26-83.5-69-83.5c-43,0-71,35-71,84.5S86,340.5,131,340.5z"/>
			<path class="st0" d="M506.1,307c-13.5,42.5-52,76-108,76C333.6,383,277,336,277,254.5c0-75.5,54.5-127.1,115-127.1
				c74,0,115.5,51,115.5,126.1c0,6-0.5,12-1,15H325.6c1,43,32,73,72.5,73c39,0,58.5-21.5,67.5-48.5L506.1,307z M458.6,230.5
				c-1-34.5-23.5-61.5-66-61.5c-39.5,0-63.5,30.5-65.5,61.5H458.6z"/>
		</g>
		<path class="st2" d="M645.6,250.1l-89.5,125.4h-56L589.7,253l-86.5-118.1h57"/>
		<path class="st0" d="M651.1,289.3 M661.6,269.4c14.5,19.5,64.2,88.9,78.7,108.4h-56.5l-47.2-70.9 M680.6,255.8"/>
		<path class="st0" d="M634.3,194.4l39.5-59.4h55.5l-67.8,95.8 M613.8,287"/>
	</g>
	<g>
		<path class="st2" d="M762.7,378.1V23.2h125.7c96.6,0,172.7,64.1,172.7,178.2c0,113.6-77.1,176.7-173.2,176.7H762.7z M885.9,323.1
			c61.6,0,112.6-39.5,112.6-121.6c0-83.1-50.6-123.1-112.1-123.1h-63.6v244.8H885.9z"/>
		<path class="st2" d="M1273.3,289h-150.2l-33,89.1h-63.6l138.2-354.9h69.6l138.2,354.9h-65.6L1273.3,289z M1144.2,233.5h108.1
			l-54.1-145.2L1144.2,233.5z"/>
		<path class="st2" d="M1518.6,15.7c93.1,0,180.7,68.6,180.7,184.7c0,116.6-87.6,185.2-180.7,185.2s-180.2-68.6-180.2-185.2
			C1338.4,84.3,1425.5,15.7,1518.6,15.7z M1518.6,328.6c60.1,0,119.1-42.6,119.1-128.2s-59.1-128.2-119.1-128.2
			c-59.6,0-118.6,42.6-118.6,128.2S1459.1,328.6,1518.6,328.6z"/>
	</g>
</g>
</svg>
