<?xml version="1.0" encoding="utf-8"?>
<!-- Generator: Adobe Illustrator 23.0.1, SVG Export Plug-In . SVG Version: 6.00 Build 0)  -->
<svg version="1.1" id="Layer_1" xmlns="http://www.w3.org/2000/svg" xmlns:xlink="http://www.w3.org/1999/xlink" x="0px" y="0px"
	 viewBox="0 0 400 400" style="enable-background:new 0 0 400 400;" xml:space="preserve">
<style type="text/css">
	.st0{fill:#4EA8DE;}
	.st1{fill:#FFFFFF;}
</style>
<g>
	<path class="st0" d="M374.8,213.3l-40.1,56.2h-25.1l40.1-54.9L311,161.8h25.5"/>
	<g>
		<path class="st0" d="M48,374.7c0.2-0.4,0.4-0.7,0.6-1.1c65.9-89.9,131.8-179.9,197.8-269.8c9.2-12.6,18.5-25.2,27.7-37.8
			c0.4-0.6,0.9-0.8,1.6-0.8c23.2,0,46.5,0,69.7,0c0.3,0,0.6,0,1.2,0c-0.3,0.5-0.6,0.9-0.8,1.2c-18.5,25.2-36.9,50.4-55.4,75.6
			c-56.5,77.1-113,154.3-169.6,231.4c-0.3,0.4-0.6,0.8-1,1.2C95.9,374.7,71.9,374.7,48,374.7z"/>
		<path class="st1" d="M125,64.9c4.6,6.5,9.1,13.1,13.7,19.6c16.5,23.7,32.9,47.3,49.4,71c0.5,0.7,0.5,1.2,0,1.8
			c-11.6,14.8-23.1,29.7-34.7,44.6c-0.2,0.2-0.4,0.5-0.6,0.8c-2.7-3.7-5.4-7.4-8.2-11.1C113.9,149.7,83.2,107.9,52.5,66
			c-0.2-0.3-0.3-0.7-0.5-1.1C76.3,64.9,100.6,64.9,125,64.9z"/>
		<path class="st1" d="M350.5,374.5c-0.4,0-0.8,0-1.2,0c-23.4,0-46.8,0-70.2,0c-0.8,0-1.3-0.3-1.8-0.9
			c-21.6-30.6-43.3-61.1-64.9-91.7c-0.4-0.6-0.5-1-0.1-1.7c11.6-16.1,23.2-32.3,34.8-48.5c0.2-0.2,0.4-0.5,0.7-0.9
			C282.1,278.8,316.2,326.5,350.5,374.5z"/>
	</g>
	<path class="st0" d="M63,161.3h25.5l-38.7,52.8L89.9,269H64.8l-40.1-56.2"/>
</g>
</svg>
