<?xml version="1.0" encoding="utf-8"?>
<!-- Generator: Adobe Illustrator 23.0.1, SVG Export Plug-In . SVG Version: 6.00 Build 0)  -->
<svg version="1.1" id="Layer_1" xmlns="http://www.w3.org/2000/svg" xmlns:xlink="http://www.w3.org/1999/xlink" x="0px" y="0px"
	 viewBox="0 0 430 410" style="enable-background:new 0 0 430 410;" xml:space="preserve">
<style type="text/css">
	.st0{fill:#4EA8DE;}
</style>
<g>
	<path class="st0" d="M371.2,172.8c9.3,5.4,10.5,12.4,2.6,19.5c-17.9,16.1-36.4,31.6-54.4,47.6c-28.4,25.3-58.4,48.8-86.1,74.9
		c-6.6,6.2-13.7,12.1-20.9,17.7c-5.8,3.3-10.4,7.9-14.7,12.8c-19.5,16.6-39.1,33.1-58.6,49.8c-2.9,2.5-5.6,4.9-9.5,5.3
		c-12.3-6.6-12.4-7-7-20.3c0.5-1.2,0.4-2.6,0.6-3.8c10.4-20.1,21.9-39.7,30.4-60.8c6.5-8.2,11.3-17.3,14.5-27.2
		c9.5-14.7,15.9-31.1,24.5-46.3c3.1-5.4-2-4.7-4.8-4.7c-16.5-0.1-33-0.1-49.5-0.1c-24,0-47.9-0.2-71.9,0.1
		c-6.2,0.1-10.4-2.2-12.6-7.6c-2.2-5.4,1.2-9,4.9-12.3c19.1-16.7,38-33.6,57.2-50.2c19.7-17.1,39.6-33.9,59.3-51
		c14.8-12.8,29.5-25.8,44.3-38.7c8.2-5.6,15.8-11.9,22.3-19.4c0,0,0,0,0,0c13.9-9.3,26.1-20.6,38-32.3c4.6-3.9,9.4-7.7,13.8-11.9
		c5.4-5,11.1-5.2,16.4-0.7c5,4.3,3.9,9.8,1.1,15.2c-18.9,36.6-37.7,73.2-56.6,109.9c-0.3,0.7-0.3,1.6-0.4,2.3
		c-6.9,8.4-10.3,18.8-15.7,28.1c-2.9,5,1.9,4.2,4.4,4.2C285.7,173,328.4,172.9,371.2,172.8z"/>
</g>
</svg>
